<?xml version="1.0" ?>
<!-- Uploaded to: SVG Repo, www.svgrepo.com, Generator: SVG Repo Mixer Tools -->
<svg fill="#000000" width="800px" height="800px" viewBox="0 0 512 512" xmlns="http://www.w3.org/2000/svg">
<g id="Mental_sustainability">
<path d="M391.94,156.27h0a76.16,76.16,0,0,0-134.59-48.73,76.15,76.15,0,0,0-134.58,48.73h0V158a83.66,83.66,0,0,0,32.64,66.3l88.35,68a21.7,21.7,0,0,0,4.52,2.68v48.36c-24.7-22.3-58.3-24.28-76.41-23.42a23.88,23.88,0,0,0-22.8,22.8c-.88,18.58,1.22,53.46,25.18,78.31,17.41,18.06,42.89,27.39,75.77,27.76.68,0,16,0,17.61-.05,31.49-.87,56-10.18,72.89-27.71,24-24.85,26.05-59.73,25.17-78.31a23.87,23.87,0,0,0-22.8-22.8c-18.17-.86-51.89,1.14-76.61,23.6V294.78a21.58,21.58,0,0,0,4.19-2.56l89.43-70.11a83.66,83.66,0,0,0,32.05-65.72h0v-.12ZM167,343.61a6,6,0,0,1,5.68-5.68c15.67-.74,45,.88,65,20.16,13.15,12.67,20.52,31.34,22,55.57a74.26,74.26,0,0,0-35.06-27.32l-6.08,18.39c.94.33,19.33,6.81,28.64,26-26.35-.8-46.55-8.25-60-22.18C167.92,388.58,166.3,359.29,167,343.61Zm169.09-5.82c2.12,0,4.1.06,5.9.14a6,6,0,0,1,5.67,5.68c.75,15.68-.88,45-20.15,65C315.83,420.73,299,428,277.33,430.12a24.75,24.75,0,0,0,.6-5.14c.24-21.48-3.22-39.92-10.31-55.16a61.43,61.43,0,0,1,9.45-11.73C294.76,341,319.75,337.79,336.13,337.79Zm15-181.47a35.38,35.38,0,0,0-35.33-35.27v-17a52.41,52.41,0,0,1,52.33,52.24Z"/>
</g>
</svg>